<?xml version="1.0" standalone="no"?>
<!DOCTYPE svg PUBLIC "-//W3C//DTD SVG 20010904//EN"
 "http://www.w3.org/TR/2001/REC-SVG-20010904/DTD/svg10.dtd">
<svg version="1.0" xmlns="http://www.w3.org/2000/svg"
 width="1920.000000pt" height="1080.000000pt" viewBox="0 0 1920.000000 1080.000000"
 preserveAspectRatio="xMidYMid meet">

<g transform="translate(0.000000,1080.000000) scale(0.100000,-0.100000)"
fill="#000000" stroke="none">
<path d="M12329 10487 c-18 -12 -44 -38 -57 -57 -21 -31 -23 -44 -20 -115 3
-50 13 -101 26 -136 34 -85 173 -290 428 -629 318 -423 420 -578 589 -895 27
-49 74 -135 105 -190 32 -55 101 -186 155 -291 81 -157 99 -200 103 -246 4
-50 2 -57 -18 -68 -18 -10 -31 -7 -77 16 -82 40 -167 131 -282 301 -114 169
-149 216 -296 383 -55 63 -150 180 -210 260 -124 164 -319 367 -382 399 -25
12 -61 21 -88 21 -38 0 -52 -5 -76 -29 -59 -60 -25 -146 106 -271 57 -54 311
-383 388 -501 60 -93 254 -434 310 -545 58 -116 272 -602 305 -694 49 -135
139 -418 161 -505 68 -275 114 -630 83 -649 -30 -18 -115 144 -242 463 -45
112 -112 270 -150 350 -42 89 -81 191 -100 260 -34 124 -76 225 -135 317 -34
54 -228 332 -349 499 -28 39 -199 221 -381 405 -323 328 -415 432 -455 517
-27 57 -25 80 6 106 88 73 95 82 101 124 11 85 -90 239 -195 296 -27 15 -94
39 -148 53 -132 35 -163 52 -226 126 -77 92 -157 169 -208 204 -25 17 -126 76
-225 131 -324 181 -363 192 -715 202 -291 9 -302 12 -509 117 -212 107 -383
129 -943 121 -471 -6 -563 -19 -1060 -147 -359 -93 -440 -132 -468 -227 -17
-54 5 -101 63 -134 37 -21 54 -24 142 -24 86 1 121 7 250 43 315 87 462 108
898 129 329 16 358 16 535 -1 243 -22 525 -61 632 -87 173 -41 204 -50 288
-85 48 -20 134 -53 192 -73 122 -43 178 -71 203 -99 28 -30 13 -42 -52 -42
-81 0 -183 29 -361 105 -100 42 -180 69 -225 76 -38 6 -80 15 -93 20 -13 5
-41 9 -62 9 -21 0 -65 7 -97 16 -48 13 -114 16 -382 15 -334 -2 -369 -4 -606
-46 -377 -66 -718 -170 -1010 -305 -49 -23 -154 -68 -233 -101 -171 -71 -266
-118 -483 -240 -409 -228 -866 -582 -1084 -839 -44 -52 -130 -147 -191 -210
-60 -64 -146 -166 -189 -226 -119 -165 -304 -390 -450 -549 -120 -131 -272
-422 -355 -680 -23 -71 -74 -211 -113 -310 -38 -99 -87 -243 -109 -320 -21
-77 -54 -184 -73 -237 -45 -128 -68 -218 -120 -478 -48 -241 -51 -263 -65
-480 -5 -85 -21 -220 -34 -300 -13 -80 -29 -206 -35 -280 -6 -74 -19 -198 -28
-275 -25 -202 -25 -907 0 -1080 9 -66 24 -199 32 -295 27 -309 62 -469 128
-593 63 -120 149 -141 197 -48 32 65 42 167 35 386 -7 192 11 570 46 995 13
164 53 444 85 589 13 64 43 204 65 311 50 243 84 368 153 557 29 81 68 193 86
248 41 125 183 454 258 600 32 61 113 196 181 300 282 433 637 961 694 1033
121 154 437 451 655 616 152 115 492 301 762 416 80 34 195 88 256 121 170 90
267 121 599 190 243 51 565 16 506 -55 -17 -20 -110 -43 -276 -66 -200 -28
-325 -59 -540 -137 -289 -104 -421 -170 -660 -329 -241 -159 -495 -366 -665
-541 -145 -148 -375 -414 -445 -513 -84 -119 -253 -409 -357 -610 -217 -418
-287 -612 -417 -1160 -80 -338 -96 -415 -120 -610 -51 -394 -51 -609 -1 -1060
34 -303 52 -422 86 -569 58 -249 110 -376 179 -440 40 -36 50 -41 94 -41 42 0
54 5 77 30 56 59 56 62 60 615 3 559 8 707 30 895 21 186 128 706 174 845 21
66 60 187 85 269 26 82 69 201 97 265 108 248 337 677 458 856 172 256 405
532 621 735 254 239 387 339 644 485 293 167 509 255 803 330 217 55 277 61
550 47 320 -17 406 -2 476 80 114 132 52 328 -166 528 -38 34 -68 68 -68 76 0
54 295 50 550 -7 25 -6 88 -32 140 -58 52 -27 106 -52 120 -56 97 -29 246
-120 335 -204 33 -31 114 -103 180 -161 66 -57 239 -221 383 -365 205 -202
286 -290 363 -393 129 -172 211 -297 260 -398 43 -88 143 -381 184 -538 42
-164 49 -260 49 -721 1 -575 -5 -618 -146 -960 -148 -361 -215 -474 -413 -697
-90 -101 -165 -155 -362 -264 -217 -119 -290 -151 -407 -175 -111 -23 -205
-24 -345 -4 -217 32 -319 75 -463 194 -172 143 -275 291 -323 466 -22 83 -31
282 -16 372 23 136 67 204 257 404 102 108 137 171 138 254 1 46 -5 73 -26
116 -35 70 -129 162 -202 195 -154 70 -365 71 -575 2 -166 -55 -290 -142 -529
-373 -201 -193 -287 -309 -346 -466 -36 -96 -53 -195 -77 -454 -33 -352 -19
-662 41 -953 79 -379 289 -713 702 -1117 185 -181 244 -227 488 -381 187 -118
274 -160 467 -224 305 -101 451 -112 913 -70 295 27 437 62 725 177 179 72
194 76 270 77 l81 1 109 -67 c150 -91 151 -93 135 -210 -15 -110 -6 -153 41
-192 94 -79 203 -57 544 109 168 81 210 107 360 220 230 173 307 240 460 397
210 214 427 474 567 678 94 137 318 511 382 637 83 166 212 467 245 573 72
227 152 501 170 580 24 106 116 644 130 765 24 198 31 356 32 715 1 412 2 402
-65 562 -41 99 -44 129 -32 343 7 122 6 152 -12 235 -11 52 -39 184 -61 292
-62 299 -205 769 -304 999 -71 164 -270 579 -318 661 -285 491 -680 1035 -902
1244 -390 367 -647 524 -859 524 -51 0 -72 -5 -99 -23z"/>
<path d="M8880 6749 c-266 -18 -415 -46 -509 -93 -87 -45 -430 -276 -520 -351
-141 -118 -474 -453 -541 -545 -70 -95 -236 -372 -298 -495 -95 -191 -211
-485 -247 -630 -42 -169 -103 -473 -121 -605 -41 -301 -27 -818 31 -1150 72
-409 144 -657 280 -965 228 -515 429 -813 829 -1227 191 -198 251 -253 360
-333 155 -112 228 -153 289 -161 42 -6 49 -4 76 24 79 78 12 191 -219 368
-127 98 -214 188 -241 249 -11 25 -28 89 -39 143 -32 167 -68 243 -222 475
-185 276 -327 607 -418 967 -17 69 -47 179 -65 245 -19 66 -47 185 -62 265
-28 143 -28 151 -28 525 0 416 0 419 71 772 45 224 74 311 199 581 91 198 120
249 252 445 160 239 279 376 456 523 193 162 291 215 589 318 331 114 389 123
693 107 234 -13 352 -35 467 -86 233 -104 301 -114 365 -50 27 27 33 40 33 77
0 65 -39 137 -122 224 -161 170 -334 282 -501 324 -80 20 -582 71 -673 69 -27
-1 -101 -5 -164 -10z"/>
</g>
</svg>
